<svg width="48" height="48" viewBox="0 0 119 84" fill="none" xmlns="http://www.w3.org/2000/svg" stroke-width="2px" stroke-linecap="round" stroke-linejoin="round"><path d="M79.2101 42.88L74.3901 45.66V38.98C74.4001 39.73 74.8801 40.38 75.8301 40.93L79.2101 42.88Z" stroke="#1a1a1a" stroke-linejoin="round"/><path d="M116.03 38.0701V58.0701C116.03 58.2601 115.99 58.4501 115.93 58.6501C115.63 59.6001 114.69 60.2701 113.12 60.6601L98.9901 64.1401V47.5801C98.9901 47.4301 98.97 47.2901 98.92 47.1501C98.77 46.6301 98.3201 46.1601 97.5801 45.7301L96.0601 44.8601L113.12 40.6601C114.69 40.2701 115.63 39.6001 115.93 38.6501C115.99 38.4501 116.03 38.2601 116.03 38.0701Z" stroke="#1a1a1a" stroke-linejoin="round"/><path d="M62.3601 40.9099L53.2401 35.6399L48.6801 33.0099L39.1502 27.4999L32.5001 23.6599L28.5902 21.3999C26.7302 20.3299 24.4802 19.7899 21.8402 19.7899C19.2002 19.7799 16.9601 20.3099 15.1201 21.3799L5.05013 27.1899C3.20013 28.2599 2.28012 29.5499 2.29012 31.0799C2.30012 32.5999 3.23017 33.8999 5.09017 34.9699L15.6801 41.0799L38.8701 54.4699C39.8201 55.0299 40.9501 55.2999 42.2401 55.2999C43.5301 55.3099 44.6501 55.0299 45.6001 54.4799L48.4201 52.8499L55.1301 48.9799L62.3801 44.7899C63.3401 44.2499 63.8101 43.5999 63.8101 42.8499C63.8001 42.1099 63.3201 41.4599 62.3601 40.9099ZM24.4401 32.5799C23.7101 32.9999 22.8701 33.1999 21.9101 33.1999C20.9501 33.1999 20.1202 32.9899 19.3902 32.5699C18.6502 32.1399 18.2902 31.6599 18.2802 31.1099C18.2802 30.5599 18.6401 30.0699 19.3701 29.6499C20.1001 29.2299 20.9402 29.0199 21.8902 29.0199C22.8402 29.0199 23.6901 29.2399 24.4201 29.6599C25.1501 30.0799 25.5202 30.5699 25.5202 31.1199C25.5302 31.6699 25.1601 32.1599 24.4401 32.5799Z" stroke="#1a1a1a" stroke-linejoin="round"/><path d="M25.5203 31.12C25.5303 31.67 25.1602 32.16 24.4402 32.58C23.7102 33 22.8702 33.2 21.9102 33.2C20.9502 33.2 20.1203 32.99 19.3903 32.57C18.6503 32.14 18.2903 31.66 18.2803 31.11C18.2803 30.56 18.6402 30.07 19.3702 29.65C20.1002 29.23 20.9403 29.02 21.8903 29.02C22.8403 29.02 23.6902 29.24 24.4202 29.66C25.1502 30.08 25.5203 30.57 25.5203 31.12Z" stroke="#1a1a1a" stroke-linejoin="round"/><path d="M85.8201 19.56L58.8001 3.95999C56.9401 2.88999 54.6901 2.34999 52.0501 2.34999C49.4101 2.33999 47.1701 2.86999 45.3301 3.93999L35.2601 9.74999C33.4101 10.82 32.4901 12.11 32.5001 13.63C32.5101 15.16 33.4401 16.46 35.3001 17.53L45.8901 23.64L62.3201 33.13C63.2801 33.68 64.4001 33.96 65.6901 33.96C66.9801 33.96 68.1001 33.69 69.0601 33.14L71.8801 31.51L85.8401 23.45C86.7901 22.9 87.2601 22.26 87.2601 21.51C87.2601 20.76 86.7801 20.12 85.8201 19.56ZM54.6501 15.13C53.9201 15.55 53.0801 15.76 52.1301 15.76C51.1801 15.76 50.3301 15.55 49.6001 15.12C48.8601 14.7 48.5001 14.21 48.4901 13.66C48.4901 13.11 48.8501 12.63 49.5801 12.21C50.3101 11.79 51.1501 11.58 52.1001 11.58C53.0501 11.58 53.9001 11.79 54.6301 12.22C55.3601 12.64 55.7301 13.13 55.7301 13.68C55.7401 14.23 55.3701 14.71 54.6501 15.13Z" stroke="#1a1a1a" stroke-linejoin="round"/><path d="M55.7302 13.6801C55.7402 14.2301 55.3703 14.7101 54.6503 15.1301C53.9203 15.5501 53.0802 15.7601 52.1302 15.7601C51.1802 15.7601 50.3302 15.5501 49.6002 15.1201C48.8602 14.7001 48.5002 14.2101 48.4902 13.6601C48.4902 13.1101 48.8503 12.6301 49.5803 12.2101C50.3103 11.7901 51.1502 11.5801 52.1002 11.5801C53.0502 11.5801 53.9002 11.7901 54.6302 12.2201C55.3602 12.6401 55.7302 13.1301 55.7302 13.6801Z" stroke="#1a1a1a" stroke-linejoin="round"/><path d="M116.03 38.07C116.03 38.26 115.99 38.45 115.93 38.65C115.63 39.6 114.69 40.27 113.12 40.66L96.0601 44.86L97.5801 45.73C98.3201 46.16 98.7701 46.63 98.9201 47.15C98.9701 47.29 98.9901 47.43 98.9901 47.58C98.9901 47.8 98.9401 48.03 98.8501 48.26C98.4701 49.23 97.4601 49.9 95.8301 50.25L80.5302 54.31L74.3901 55.94L63.8101 58.76L60.2601 59.7L53.3001 61.55C52.6801 61.71 52.1201 61.72 51.6201 61.59C51.1101 61.46 50.7401 61.27 50.5201 61.01C50.2901 60.75 50.1701 60.46 50.1401 60.16C50.1101 59.85 50.3101 59.56 50.7601 59.31L55.1801 56.76L61.8901 52.88L63.8101 51.77L74.3901 45.66L79.2101 42.88L75.8301 40.93C74.8801 40.38 74.4001 39.73 74.3901 38.98C74.3901 38.24 74.8601 37.59 75.8101 37.04L78.6301 35.41L87.2601 30.43L92.6001 27.35C93.5501 26.8 94.6701 26.53 95.9601 26.53C97.2501 26.53 98.3701 26.81 99.3301 27.36L114.61 36.19C115.55 36.73 116.03 37.36 116.03 38.07Z" stroke="#1a1a1a" stroke-linejoin="round"/><path d="M116.03 58.2101V58.0701" stroke="#1a1a1a" stroke-linejoin="round"/><path d="M116.03 38.0701V37.8601" stroke="#1a1a1a" stroke-linejoin="round"/><path d="M98.9902 67.7301V67.5801" stroke="#1a1a1a" stroke-linejoin="round"/><path d="M98.9902 47.58V47.29" stroke="#1a1a1a" stroke-linejoin="round"/><path d="M98.9901 47.5801V67.5801C98.9901 67.8001 98.9401 68.0301 98.8501 68.2601C98.4701 69.2301 97.4601 69.9001 95.8301 70.2501L53.3001 81.5501C52.6801 81.7101 52.1201 81.7201 51.6201 81.5901C51.1101 81.4601 50.7401 81.2701 50.5201 81.0101C50.2901 80.7501 50.1701 80.4601 50.1401 80.1601V60.1601C50.1701 60.4601 50.2901 60.7501 50.5201 61.0101C50.7401 61.2701 51.1101 61.4601 51.6201 61.5901C52.1201 61.7201 52.6801 61.7101 53.3001 61.5501L60.2601 59.7001L63.8101 58.7601L74.3901 55.9401L80.5302 54.3101L95.8301 50.2501C97.4601 49.9001 98.4701 49.2301 98.8501 48.2601C98.9401 48.0301 98.9901 47.8001 98.9901 47.5801Z" stroke="#1a1a1a" stroke-linejoin="round"/><path d="M63.8101 42.8501V51.7701L61.8901 52.8801L55.1801 56.7601L50.7601 59.3101C50.3101 59.5601 50.1101 59.8501 50.1401 60.1601V71.8601L45.6 74.4801C44.65 75.0301 43.5301 75.3101 42.2401 75.3001C40.9501 75.3001 39.8201 75.0301 38.8701 74.4701L5.09009 54.9701C3.23009 53.9001 2.30004 52.6001 2.29004 51.0801V31.0801C2.30004 32.6001 3.23009 33.9001 5.09009 34.9701L15.6801 41.0801L38.8701 54.4701C39.8201 55.0301 40.9501 55.3001 42.2401 55.3001C43.5301 55.3101 44.65 55.0301 45.6 54.4801L48.42 52.8501L55.1301 48.9801L62.3801 44.7901C63.3401 44.2501 63.8101 43.6001 63.8101 42.8501Z" stroke="#1a1a1a" stroke-linejoin="round"/><path d="M87.26 21.5099V30.4299L78.63 35.4099L75.81 37.0399C74.86 37.5899 74.39 38.2399 74.39 38.9799V45.6599L63.81 51.7699V42.8499C63.8 42.1099 63.32 41.4599 62.36 40.9099L53.24 35.6399L48.68 33.0099L39.15 27.4999L32.5 23.6599V13.6299C32.51 15.1599 33.44 16.4599 35.3 17.5299L45.89 23.6399L62.32 33.1299C63.28 33.6799 64.4 33.9599 65.69 33.9599C66.98 33.9599 68.1 33.6899 69.06 33.1399L71.88 31.5099L85.84 23.4499C86.79 22.8999 87.26 22.2599 87.26 21.5099Z" stroke="#1a1a1a" stroke-linejoin="round"/></svg>